<svg width="32" height="32" viewBox="0 0 32 32" fill="none" xmlns="http://www.w3.org/2000/svg">
  <rect width="32" height="32" rx="8" fill="#084CBD"/>
  <path d="M8 12C8 10.3431 9.34315 9 11 9H21C22.6569 9 24 10.3431 24 12V20C24 21.6569 22.6569 23 21 23H11C9.34315 23 8 21.6569 8 20V12Z" fill="white"/>
  <path d="M12 13.5C12 13.2239 12.2239 13 12.5 13H19.5C19.7761 13 20 13.2239 20 13.5V14.5C20 14.7761 19.7761 15 19.5 15H12.5C12.2239 15 12 14.7761 12 14.5V13.5Z" fill="#084CBD"/>
  <path d="M12 16.5C12 16.2239 12.2239 16 12.5 16H17.5C17.7761 16 18 16.2239 18 16.5V17.5C18 17.7761 17.7761 18 17.5 18H12.5C12.2239 18 12 17.7761 12 17.5V16.5Z" fill="#084CBD"/>
  <path d="M12 19.5C12 19.2239 12.2239 19 12.5 19H15.5C15.7761 19 16 19.2239 16 19.5V20.5C16 20.7761 15.7761 21 15.5 21H12.5C12.2239 21 12 20.7761 12 20.5V19.5Z" fill="#084CBD"/>
</svg>